<svg xmlns="http://www.w3.org/2000/svg"
    xmlns:xlink="http://www.w3.org/1999/xlink" width="40" zoomAndPan="magnify" viewBox="0 0 30 30.000001" height="40" preserveAspectRatio="xMidYMid meet" version="1.0">
    <defs>
        <g/>
    </defs>
    <g fill="#000000" fill-opacity="1">
        <g transform="translate(2.426662, 18.018628)">
            <g>
                <path d="M 3.8125 -5.707031 C 3.886719 -5.875 4.003906 -5.945312 4.171875 -5.945312 C 4.339844 -5.945312 4.457031 -5.875 4.519531 -5.707031 L 6.671875 0 L 8.046875 0 L 5.652344 -6.304688 C 5.402344 -6.964844 4.917969 -7.21875 4.183594 -7.21875 C 3.4375 -7.21875 2.953125 -6.964844 2.691406 -6.304688 L 0.199219 0 L 1.566406 0 Z M 3.8125 -5.707031 "/>
            </g>
        </g>
    </g>
    <g fill="#000000" fill-opacity="1">
        <g transform="translate(10.664592, 18.018628)">
            <g/>
        </g>
    </g>
    <g fill="#000000" fill-opacity="1">
        <g transform="translate(13.470115, 18.018628)">
            <g>
                <path d="M 1.136719 -8.375 L 1.136719 1.746094 L 1.902344 1.746094 L 1.902344 -8.375 Z M 1.136719 -8.375 "/>
            </g>
        </g>
    </g>
    <g fill="#000000" fill-opacity="1">
        <g transform="translate(16.506795, 18.018628)">
            <g/>
        </g>
    </g>
    <g fill="#000000" fill-opacity="1">
        <g transform="translate(19.312317, 18.018628)">
            <g>
                <path d="M 0.199219 -7.09375 L 2.574219 -0.789062 C 2.835938 -0.09375 3.371094 0.125 4.066406 0.125 C 4.800781 0.125 5.285156 -0.125 5.546875 -0.789062 L 8.046875 -7.09375 L 6.671875 -7.09375 L 4.414062 -1.386719 C 4.339844 -1.21875 4.234375 -1.144531 4.066406 -1.144531 C 3.898438 -1.144531 3.78125 -1.21875 3.71875 -1.386719 L 1.566406 -7.09375 Z M 0.199219 -7.09375 "/>
            </g>
        </g>
    </g>
</svg>